/vscmnt/brussel_pixiu_data/_data_brussel/112/vsc11236/PredSimResults/SUBJ06opt3D/trackIG/worker_04.mot
version=1
nRows=5
nColumns=50
inDegrees=yes
endheader
                time	         pelvis_tilt	         pelvis_list	     pelvis_rotation	           pelvis_tx	           pelvis_ty	           pelvis_tz	       hip_flexion_r	     hip_adduction_r	      hip_rotation_r	        knee_angle_r	       ankle_angle_r	         mtp_angle_r	       hip_flexion_l	     hip_adduction_l	      hip_rotation_l	        knee_angle_l	       ankle_angle_l	         mtp_angle_l	    lumbar_extension	      lumbar_bending	     lumbar_rotation	 ercspn_r/activation	 intobl_r/activation	 extobl_r/activation	    abd_r/activation	    add_r/activation	hamstrings_r/activation	bifemsh_r/activation	glut_max_r/activation	iliopsoas_r/activation	rect_fem_r/activation	  vasti_r/activation	gastroc_r/activation	 soleus_r/activation	tib_ant_r/activation	 ercspn_l/activation	 intobl_l/activation	 extobl_l/activation	    abd_l/activation	    add_l/activation	hamstrings_l/activation	bifemsh_l/activation	glut_max_l/activation	iliopsoas_l/activation	rect_fem_l/activation	  vasti_l/activation	gastroc_l/activation	 soleus_l/activation	tib_ant_l/activation	
          1.36717403	         -2.52672188	         -3.39347683	          6.74717081	          1.23045663	          0.94488725	         -0.01493523	         25.06168558	          0.72304551	        -12.41345588	         -7.54836857	         -1.77880804	          0.21143538	        -10.86234308	         -4.66961575	         -9.79249239	        -12.17727292	          9.01355033	         30.47237180	         -5.68962822	          1.72657010	         -7.25581596	          0.19147809	          0.20078941	          0.00999999	          0.00999999	          0.26078572	          0.02686784	          0.00999999	          0.01097279	          0.12005586	          0.01851180	          0.11202387	          0.00999999	          0.00999999	          0.48551962	          0.09479201	          0.00999999	          0.00999999	          0.08321972	          0.00999999	          0.00999999	          0.17190014	          0.01776060	          0.15366098	          0.02790924	          0.00999999	          0.20128546	          0.32778039	          0.01693638	
          1.38084577	         -2.60514826	         -3.30387130	          6.67561454	          1.24617018	          0.94338433	         -0.01367756	         24.55620613	          0.82980272	        -12.31274032	         -7.95384636	         -2.21359316	          0.19809687	        -11.36208501	         -4.79300976	        -10.35032276	        -12.85945078	          8.13920177	         32.10174558	         -5.29631719	          2.03590336	         -7.65988544	          0.16404914	          0.18179172	          0.00999999	          0.00999999	          0.21239003	          0.02556792	          0.00999999	          0.00999999	          0.09777632	          0.01507644	          0.12224378	          0.01507644	          0.01507644	          0.49098341	          0.09922294	          0.00999999	          0.00999999	          0.06777610	          0.00999999	          0.00999999	          0.13999952	          0.01507644	          0.12514512	          0.02272994	          0.00999999	          0.17840959	          0.30936708	          0.01379339	
          1.39451751	         -2.66914732	         -3.23060655	          6.56390918	          1.26224980	          0.94212219	         -0.01236213	         23.88146711	          0.93812030	        -12.26323718	         -8.35787558	         -2.47615573	          0.18581234	        -11.76917070	         -4.95866687	        -10.90551428	        -13.76455404	          7.12067878	         33.75686634	         -4.88298254	          2.38895845	         -8.02198386	          0.13360548	          0.14805546	          0.00999999	          0.02172548	          0.17297544	          0.05033821	          0.01000000	          0.00999999	          0.07963134	          0.01227861	          0.12533582	          0.01227861	          0.01227861	          0.53844003	          0.10519184	          0.00999999	          0.00999999	          0.05519845	          0.00999999	          0.00999999	          0.14300732	          0.01227861	          0.17406340	          0.01851180	          0.00999999	          0.14530097	          0.28332379	          0.01123366	
          1.40818925	         -2.72238244	         -3.19013243	          6.40443406	          1.27840631	          0.94127729	         -0.01091091	         23.14233955	          1.07885476	        -12.38416930	         -8.67333751	         -2.73357328	          0.15753615	        -11.95509563	         -5.20608263	        -11.45437153	        -15.08008093	          5.94005457	         35.43860165	         -4.48134097	          2.79081550	         -8.32794700	          0.12229618	          0.12057985	          0.00999999	          0.06792158	          0.14087527	          0.05641731	          0.00999999	          0.03288664	          0.06485364	          0.00999999	          0.13588175	          0.00999999	          0.00999999	          0.55746579	          0.14287049	          0.00999999	          0.00999999	          0.04495492	          0.00999999	          0.00999999	          0.11646853	          0.00999999	          0.15913082	          0.01507644	          0.00999999	          0.11833653	          0.25878437	          0.00999999	
          1.42186099	         -2.76640240	         -3.17960905	          6.20930717	          1.29438335	          0.94111403	         -0.00931825	         22.43211370	          1.24490450	        -12.56743867	         -9.09863364	         -2.58574150	          0.15380459	        -11.82578343	         -5.55206303	        -11.98892737	        -16.91647526	          4.50737955	         37.13855027	         -4.11436260	          3.22746815	         -8.58417968	          0.11729088	          0.09820307	          0.00999999	          0.10532314	          0.11473214	          0.05990553	          0.00999999	          0.06335530	          0.05281833	          0.00999999	          0.15809274	          0.00999999	          0.00999999	          0.52027809	          0.18700337	          0.00999999	          0.00999999	          0.03661235	          0.04703184	          0.05709443	          0.09485472	          0.00999999	          0.12959989	          0.01227861	          0.00999999	          0.09637606	          0.21137133	          0.00999999	
